<?xml version="1.0" standalone="no"?>
<!DOCTYPE svg PUBLIC "-//W3C//DTD SVG 20010904//EN"
 "http://www.w3.org/TR/2001/REC-SVG-20010904/DTD/svg10.dtd">
<svg version="1.0" xmlns="http://www.w3.org/2000/svg"
 width="1000.000000pt" height="1000.000000pt" viewBox="0 0 1000.000000 1000.000000"
 preserveAspectRatio="xMidYMid meet">
<metadata>
Created by potrace 1.14, written by Peter Selinger 2001-2017
</metadata>
<g transform="translate(0.000000,1000.000000) scale(0.100000,-0.100000)"
fill="#000000" stroke="none">
<path d="M4861 9579 c-98 -25 -169 -58 -240 -113 -152 -117 -242 -281 -257
-466 -4 -41 -9 -78 -13 -81 -3 -4 -28 -19 -56 -34 -27 -15 -133 -76 -235 -134
-102 -59 -293 -170 -425 -246 -132 -76 -367 -212 -522 -302 -156 -89 -285
-163 -288 -163 -3 0 -11 -5 -18 -10 -7 -6 -118 -71 -247 -145 -129 -74 -242
-139 -250 -144 -8 -5 -98 -57 -199 -115 l-185 -107 -40 29 c-65 47 -155 88
-233 107 -69 16 -208 22 -262 11 -225 -48 -395 -180 -488 -379 -63 -136 -75
-320 -29 -462 60 -186 201 -343 368 -411 l48 -19 0 -1531 0 -1530 -37 -29
c-48 -35 -126 -127 -158 -183 -56 -98 -78 -180 -81 -302 -4 -145 18 -241 80
-350 97 -170 287 -301 472 -325 204 -27 415 41 551 175 l32 32 368 -213 c202
-116 382 -220 398 -230 17 -10 46 -26 65 -37 19 -11 134 -77 255 -147 121 -70
236 -136 255 -147 19 -11 123 -71 230 -133 107 -62 211 -122 230 -132 146 -82
520 -299 542 -314 15 -11 31 -19 36 -19 18 0 34 -29 48 -90 49 -213 229 -396
454 -465 76 -23 229 -28 314 -10 260 55 464 266 510 530 11 62 13 187 4 223
-2 11 437 273 812 484 19 11 107 62 195 113 463 269 719 415 727 415 4 0 8 5
8 10 0 6 5 10 11 10 6 0 64 32 128 70 65 39 121 70 124 70 4 0 35 -23 69 -51
198 -162 473 -195 703 -84 406 195 496 729 179 1052 l-73 74 0 1477 -1 1477
53 29 c101 58 223 198 269 311 131 318 1 677 -301 834 -168 87 -337 100 -518
39 l-63 -21 -87 50 c-49 27 -193 110 -321 184 -127 74 -247 142 -265 153 -88
50 -711 410 -847 489 -85 50 -180 104 -210 120 -30 16 -59 33 -65 37 -5 5 -84
51 -175 103 -91 52 -183 105 -206 118 -23 13 -91 53 -153 89 -62 36 -127 73
-145 82 -32 16 -33 18 -39 100 -11 155 -72 284 -192 403 -64 64 -97 89 -165
122 -108 52 -161 65 -280 68 -68 2 -116 -2 -169 -16z m-406 -980 c124 -196
329 -310 560 -311 224 -2 430 110 552 300 l34 52 42 -24 c23 -13 94 -54 157
-90 63 -37 122 -71 130 -76 8 -5 29 -17 45 -26 17 -9 273 -157 570 -329 297
-171 560 -323 585 -337 25 -14 126 -72 225 -130 99 -57 200 -116 225 -130 140
-79 346 -200 355 -209 6 -6 6 -12 -1 -17 -24 -17 -84 -130 -104 -200 -22 -72
-25 -98 -24 -207 1 -126 25 -215 89 -324 101 -173 311 -303 508 -315 l52 -3 3
-1389 2 -1389 -117 0 c-96 0 -131 -5 -188 -23 -171 -57 -313 -179 -390 -337
-25 -49 -51 -121 -58 -160 -16 -81 -14 -217 5 -290 l13 -50 -45 -26 c-25 -14
-90 -52 -145 -84 -55 -32 -118 -68 -140 -80 -22 -13 -107 -62 -190 -110 -82
-48 -168 -97 -190 -109 -22 -13 -96 -56 -165 -96 -69 -40 -141 -82 -160 -93
-68 -38 -437 -251 -555 -320 -66 -38 -144 -83 -173 -99 -29 -16 -89 -51 -134
-77 l-81 -48 -71 72 c-151 152 -347 219 -561 192 -71 -8 -229 -64 -245 -86 -3
-4 -22 -17 -42 -29 -76 -47 -211 -217 -225 -283 -3 -16 -9 -32 -14 -34 -4 -3
-49 19 -99 50 -50 30 -93 55 -95 55 -2 0 -28 14 -57 31 -29 18 -66 39 -83 49
-16 9 -104 60 -195 112 -91 53 -181 105 -201 116 -35 19 -180 105 -209 123
-15 9 -191 110 -346 198 -66 38 -641 370 -694 401 -8 5 -82 48 -165 96 -82 47
-151 87 -151 88 -1 0 4 30 12 66 19 86 16 210 -7 299 -29 115 -82 205 -174
297 -133 133 -297 199 -474 192 l-81 -3 2 1459 3 1459 60 13 c264 54 459 256
513 529 4 17 6 75 5 130 0 80 -6 115 -27 179 -15 43 -25 80 -24 81 2 2 57 35
123 73 208 119 1493 861 1660 958 88 50 246 142 350 203 105 60 191 110 192
111 2 0 14 -18 28 -41z"/>
<path d="M4850 5720 c-237 -30 -444 -178 -554 -397 -51 -101 -68 -172 -72
-303 -5 -162 28 -285 112 -416 40 -63 135 -160 198 -203 220 -151 519 -167
755 -40 429 231 513 816 166 1155 -162 159 -381 232 -605 204z"/>
</g>
</svg>
